<?xml version="1.0" encoding="UTF-8" standalone="no"?>
<svg width="83px" height="44px" viewBox="0 0 83 44" version="1.1" xmlns="http://www.w3.org/2000/svg" xmlns:xlink="http://www.w3.org/1999/xlink">
    <!-- Generator: Sketch 42 (36781) - http://www.bohemiancoding.com/sketch -->
    <title>Combined Shape</title>
    <desc>Created with Sketch.</desc>
    <defs></defs>
    <g id="wireframe" stroke="none" stroke-width="1" fill="none" fill-rule="evenodd">
        <g id="首页" transform="translate(-902.000000, -45.000000)" fill="#9B9B9B">
            <path d="M970.882127,53.9409987 L971.339731,53.9409987 C971.339731,53.9409987 974.568777,53.9409987 974.568777,57.196081 C974.568777,60.4511633 971.237176,60.0930154 971.237176,60.0930154 L959.085228,60.5165698 L962.804189,87.3773491 C962.804189,87.3773491 963.136301,88.4848137 961.505902,88.8194661 C959.875503,89.1541186 959.875503,87.7570875 959.875503,87.7570875 L955.939368,60.5165698 L952.973853,65.0588257 L943.128594,65.3128313 L943.128594,53.9409987 L969.079386,53.9409987 L964.424427,53.8063757 L964.567861,50.629162 L966.294702,50.3973024 L966.584269,50.0512197 L966.584269,45.5069 L966.96877,45.1625636 L968.283408,45.1641511 L968.705216,45.6953404 L968.701723,50.2696646 L970.675982,50.629162 L970.882127,53.9409987 Z M921.759378,46.4009121 C922.462893,45.5748296 924.033364,45.4175927 924.033364,45.4175927 C924.033364,45.4175927 928.393277,45.1224253 931.171081,45.586824 C933.948886,46.0512227 935.920817,46.5078607 935.895586,47.4007418 C935.870356,48.2936228 934.211908,48.6263664 931.07186,49.0981345 C930.398936,49.1992362 929.62115,49.2361044 928.894635,49.31038 C924.033364,49.8073743 921.982236,48.762101 921.690638,48.1684739 C921.39904,47.5748467 921.055864,47.2269946 921.759378,46.4009121 Z M964.580404,48.2021544 C963.876889,49.0282369 962.306418,49.1854738 962.306418,49.1854738 C962.306418,49.1854738 957.946505,49.4806412 955.168701,49.0162425 C952.390896,48.5518438 950.418965,48.0952057 950.444196,47.2023247 C950.469426,46.3094436 952.127874,45.9767001 955.267922,45.504932 C955.940846,45.4038303 956.718632,45.3669621 957.445147,45.2926865 C962.306418,44.7956922 964.357546,45.8409655 964.649144,46.4345926 C964.940742,47.0282198 965.283918,47.3760719 964.580404,48.2021544 Z M970.528462,46.2383485 C971.231976,45.412266 972.802448,45.2550291 972.802448,45.2550291 C972.802448,45.2550291 977.16236,44.9598617 979.940165,45.4242604 C982.717969,45.8886591 984.6899,46.3452971 984.66467,47.2381782 C984.639439,48.1310592 982.980991,48.4638028 979.840944,48.9355709 C979.16802,49.0366726 978.390234,49.0735408 977.663719,49.1478164 C972.802448,49.6448107 970.751319,48.5995374 970.459722,48.0059102 C970.168124,47.4122831 969.824947,47.064431 970.528462,46.2383485 Z M916.136447,46.2383485 C916.839962,47.064431 916.496785,47.4122831 916.205187,48.0059102 C915.91359,48.5995374 913.862462,49.6448107 909.001191,49.1478164 C908.274675,49.0735408 907.496889,49.0366726 906.823965,48.9355709 C903.683918,48.4638028 902.02547,48.1310592 902.000239,47.2381782 C901.975009,46.3452971 903.94694,45.8886591 906.724744,45.4242604 C909.502549,44.9598617 913.862462,45.2550291 913.862462,45.2550291 C913.862462,45.2550291 915.432933,45.412266 916.136447,46.2383485 Z M918.037123,45 L919.351761,45.0015875 L919.773569,45.5327768 L919.770076,50.107101 L921.744335,50.4665983 L921.953731,53.830665 L915.49278,53.6438121 L915.636214,50.4665983 L917.363055,50.2347388 L917.652622,49.8886561 L917.652622,45.3443364 L918.037123,45 Z M943.128594,53.9409987 L943.128594,65.3128313 L933.283335,65.0588257 L930.317819,60.5165698 L926.381684,87.7570875 C926.381684,87.7570875 926.381684,89.1541186 924.751286,88.8194661 C923.120887,88.4848137 923.452999,87.3773491 923.452999,87.3773491 L927.171959,60.5165698 L915.020012,60.0930154 C915.020012,60.0930154 911.68841,60.4511633 911.68841,57.196081 C911.68841,53.9409987 914.917457,53.9409987 914.917457,53.9409987 L943.128594,53.9409987 Z" id="Combined-Shape"></path>
        </g>
    </g>
</svg>