<?xml version="1.0" encoding="utf-8"?>
<!-- Generator: Adobe Illustrator 15.0.0, SVG Export Plug-In . SVG Version: 6.00 Build 0)  -->
<!DOCTYPE svg PUBLIC "-//W3C//DTD SVG 1.1//EN" "http://www.w3.org/Graphics/SVG/1.1/DTD/svg11.dtd">
<svg version="1.1" id="图层_1" xmlns="http://www.w3.org/2000/svg" xmlns:xlink="http://www.w3.org/1999/xlink" x="0px" y="0px"
	 width="841.891px" height="595.279px" viewBox="0 0 841.891 595.279" enable-background="new 0 0 841.891 595.279"
	 xml:space="preserve">
<g>
	<text transform="matrix(1 0 0 1 393.7688 349.5217)" font-family="'JLinXin'" font-size="12">好 奇 猫</text>
</g>
<g>
	<path d="M393.67,321.24c0,4.777-3.924,8.651-8.765,8.651c-4.84,0-8.764-3.874-8.764-8.651c0-4.778,3.924-8.651,8.764-8.651
		C389.746,312.589,393.67,316.462,393.67,321.24z M447.274,312.589c-4.84,0-8.764,3.873-8.764,8.651
		c0,4.777,3.924,8.651,8.764,8.651s8.764-3.874,8.764-8.651C456.038,316.462,452.114,312.589,447.274,312.589z"/>
	<g>
		<path d="M460.374,261.751c-6.621,1.185-15,2.918-24.06,9.817c-5.943-2.582-12.809-4.057-20.122-4.057
			c-7.545,0-14.611,1.569-20.683,4.304c-8.221-7.978-16.449-11.046-22.835-12.648c-2.853,16.51,3.873,31.796,3.873,31.796
			s0.016-0.013,0.036-0.032c-0.886,2.576-1.36,5.28-1.36,8.07c0,5.043,1.546,9.809,4.288,14.033
			c1.689-1.167,3.763-1.855,6.006-1.855c5.686,0,10.293,4.418,10.293,9.868c0,1.702-0.449,3.305-1.241,4.701
			c6.276,3.005,13.686,4.74,21.623,4.74c8.25,0,15.928-1.875,22.357-5.101c-0.607-1.259-0.948-2.658-0.948-4.136
			c0-5.449,4.609-9.869,10.293-9.869c1.89,0,3.657,0.489,5.179,1.342c2.617-4.148,4.086-8.805,4.086-13.726
			c0-3.616-0.796-7.089-2.256-10.324C457.347,283.207,460.981,273.007,460.374,261.751z M397.949,311.955
			c-6.754,0-12.229-6.614-12.229-14.775s5.476-14.776,12.229-14.776s12.229,6.615,12.229,14.776S404.703,311.955,397.949,311.955z
			 M414.814,325.104c-0.662,0-3.465-0.459-4.331-12.484h8.662C419.146,312.618,418.483,325.104,414.814,325.104z M431.682,311.753
			c-6.755,0-12.229-6.616-12.229-14.777c0-8.16,5.476-14.775,12.229-14.775s12.229,6.615,12.229,14.775
			C443.911,305.137,438.436,311.753,431.682,311.753z"/>
		<path d="M398.056,288.212c-0.996,0-1.955,0.181-2.86,0.514c1.812,0.416,3.162,2.033,3.162,3.971c0,2.252-1.825,4.076-4.075,4.076
			c-2.165,0-3.931-1.688-4.063-3.817c-1.225,1.975-1.949,4.426-1.949,7.082c0,6.531,4.382,11.826,9.787,11.826
			c5.404,0,9.785-5.295,9.785-11.826C407.842,293.507,403.461,288.212,398.056,288.212z"/>
		<path d="M431.788,288.008c-1.155,0-2.266,0.243-3.295,0.688c1.875,0.366,3.291,2.019,3.291,4c0,2.251-1.823,4.076-4.076,4.076
			c-2.07,0-3.777-1.547-4.037-3.547c-1.055,1.887-1.671,4.16-1.671,6.606c0,6.531,4.383,11.826,9.788,11.826
			c5.404,0,9.786-5.295,9.786-11.826C441.574,293.301,437.192,288.008,431.788,288.008z"/>
	</g>
	<path d="M417.468,268.208c-0.85-10.619,3.597-13.062,5.496-14.103c0.218-0.121,0.423-0.232,0.523-0.31l0.03-0.022
		c11.561-7.946,11.234-12.976,11.079-15.393l-0.005-0.083c-1.035-4.873-3.503-8.402-7.335-10.489
		c-8.628-4.697-21.232-0.799-22.376-0.425c-8.79,5.943-5.399,14.951-5.364,15.042l-1.709,0.668
		c-0.041-0.105-3.999-10.59,6.153-17.301c0.021-0.015,0.085-0.058,0.085-0.058l0.096-0.035c0.136-0.054,14.14-4.868,23.993,0.497
		c4.343,2.364,7.124,6.331,8.265,11.787l0.021,0.132l0.008,0.146c0.179,2.754,0.549,8.482-11.855,17.015
		c-0.202,0.148-0.445,0.282-0.726,0.438c-1.723,0.945-5.305,2.912-4.551,12.35L417.468,268.208z M400.345,241.906
		c-3.675,0-6.664,2.989-6.664,6.663c0,3.675,2.989,6.663,6.664,6.663c3.673,0,6.661-2.988,6.661-6.663
		C407.007,244.895,404.018,241.906,400.345,241.906z M400.345,252.468c-2.153,0-3.898-1.746-3.898-3.898
		c0-2.151,1.745-3.897,3.898-3.897c2.15,0,3.896,1.746,3.896,3.897C404.242,250.722,402.496,252.468,400.345,252.468z"/>
	<path d="M388.268,248.722c0,0.676-0.548,1.224-1.225,1.224h-2.751c-0.675,0-1.223-0.548-1.223-1.224l0,0
		c0-0.675,0.548-1.223,1.223-1.223h2.751C387.72,247.499,388.268,248.047,388.268,248.722L388.268,248.722z M417.465,248.569
		c0-0.676-0.548-1.223-1.224-1.223h-2.752c-0.674,0-1.223,0.547-1.223,1.223l0,0c0,0.677,0.549,1.224,1.223,1.224h2.752
		C416.917,249.792,417.465,249.245,417.465,248.569L417.465,248.569z M412.12,236.966c-0.434-0.521-1.205-0.588-1.723-0.154
		l-2.11,1.769c-0.519,0.433-0.587,1.204-0.151,1.723l0,0c0.433,0.518,1.203,0.586,1.722,0.152l2.109-1.768
		C412.485,238.254,412.553,237.483,412.12,236.966L412.12,236.966z M392.4,256.99c-0.435-0.519-1.205-0.587-1.723-0.152l-2.11,1.768
		c-0.519,0.434-0.586,1.204-0.152,1.723l0,0c0.435,0.519,1.205,0.587,1.724,0.152l2.108-1.768
		C392.766,258.279,392.834,257.508,392.4,256.99L392.4,256.99z M391.79,240.009c0.477-0.479,0.476-1.253-0.004-1.729l-1.949-1.941
		c-0.478-0.478-1.252-0.476-1.729,0.004l0,0c-0.479,0.479-0.477,1.253,0.002,1.729l1.951,1.942
		C390.538,240.489,391.313,240.487,391.79,240.009L391.79,240.009z M412.427,260.798c0.477-0.479,0.476-1.252-0.004-1.729
		l-1.949-1.94c-0.479-0.479-1.252-0.477-1.729,0.003l0,0c-0.478,0.479-0.476,1.253,0.002,1.729l1.95,1.941
		C411.176,261.278,411.951,261.276,412.427,260.798L412.427,260.798z M400.657,265.537c0.676-0.003,1.222-0.553,1.22-1.228
		l-0.009-2.751c-0.002-0.676-0.551-1.223-1.227-1.22l0,0c-0.676,0.001-1.223,0.552-1.22,1.227l0.01,2.751
		C399.434,264.993,399.982,265.539,400.657,265.537L400.657,265.537z"/>
	<path d="M397.374,243.208c0,0-6.25-20.749,18.624-20.375c7.126,0.106,20.75,3.5,20.876,15.938c0.124,2.875-1.438,10-12.813,17.125
		c-0.875,0.625-5.75,3-3.375,12.188c-3.563-0.063-6.125,0.125-6.125,0.125s0.375-9.875,8.125-14.75
		c2.625-1.563,22.563-15.625,3.063-26c-0.739-0.394-29-8.625-25.188,15.375C400.561,242.833,399.124,244.083,397.374,243.208z"/>
</g>
</svg>
